# xmcd CD database file
#
# Track frame offsets:
#	150
#	22555
#	38632
#	53705
#
# Disc length: 1012 seconds
#
# Revision: 1
# Processed by: cddbd v1.5.1PL0 Copyright (c) Steve Scherf et al.
# Submitted via: CDex 1.51
#
DISCID=1e03f204
DTITLE=GARNET CROW - 忘れ咲き
DYEAR=2004
DGENRE=JPop
TTITLE0=忘れ咲き
TTITLE1=Flower
TTITLE2=祭りのじかん
TTITLE3=忘れ咲き(Instrumental)
EXTD=YEAR: 2004
EXTT0=
EXTT1=
EXTT2=
EXTT3=
PLAYORDER=
